<svg width="99" height="123" viewBox="0 0 99 123" fill="none" xmlns="http://www.w3.org/2000/svg">
<path fill-rule="evenodd" clip-rule="evenodd" d="M78.7701 0C75.4801 39.36 30.4301 13.5 13.3201 46.28C10.9001 51.62 9.29012 56.57 8.52012 61.12C7.26012 62.67 6.10012 64.34 5.07012 66.12C-0.14988 75.17 -1.20988 85.47 1.29012 94.83C3.80012 104.18 9.87012 112.58 18.9201 117.8C27.9701 123.02 38.2701 124.08 47.6301 121.58C56.9801 119.07 65.3801 113 70.6001 103.95C72.9101 99.95 74.4001 95.71 75.1401 91.41C80.4601 88.31 85.1601 83.93 88.7601 78.13C94.8401 64.01 83.7501 52.75 98.9301 42.81C89.5501 38.09 83.8301 42.97 78.3501 52.51C72.4201 65.39 50.2101 50.14 71.0301 42.22C88.9201 35.42 87.2901 14.45 78.7701 0ZM37.0201 84.91C37.1301 84.91 37.2501 84.91 37.3601 84.92L50.3901 75.16C51.9001 74.03 54.0501 74.33 55.1801 75.84C56.3101 77.35 56.0101 79.5 54.5001 80.63L41.6001 90.3C41.2401 92.51 39.3301 94.2 37.0201 94.2C34.4601 94.2 32.3801 92.12 32.3801 89.56C32.3801 89.07 32.4601 88.6 32.6001 88.15L19.3301 77.89C18.4901 77.24 18.3401 76.04 18.9801 75.2C19.6301 74.36 20.8301 74.21 21.6701 74.85L35.1701 85.29C35.7401 85.05 36.3601 84.91 37.0201 84.91ZM53.9601 57.11C70.0201 66.38 75.0401 85.11 65.7601 101.17C56.4901 117.23 37.7601 122.25 21.7001 112.98C5.64012 103.71 0.62012 84.98 9.90012 68.92C19.1801 52.86 37.9001 47.84 53.9601 57.11Z" fill="black"/>
</svg>
