<svg width="76" height="76" viewBox="0 0 76 76" fill="none" xmlns="http://www.w3.org/2000/svg">
<path fill-rule="evenodd" clip-rule="evenodd" d="M75.4966 44.2007C75.8276 42.1829 76 40.1116 76 38C76 17.0132 58.9868 0 38 0C26.1191 0 15.512 5.45215 8.5437 13.9912C8.53638 14.0342 8.52905 14.0771 8.52173 14.1201C7.26172 15.6699 6.10181 17.3401 5.07178 19.1201C1.68701 24.9883 0.0515137 31.3821 0.0012207 37.7043C0.000488281 37.8027 0 37.9014 0 38C0 58.9868 17.0132 76 38 76C56.8752 76 72.5361 62.238 75.4966 44.2007ZM37.0334 37.9099H37.0217C36.7964 37.9099 36.5754 37.9263 36.3599 37.9573L36.3296 37.9619C36.1543 37.9883 35.9827 38.0244 35.8145 38.0693C35.7227 38.094 35.6318 38.1213 35.5422 38.1511C35.4165 38.1926 35.2932 38.239 35.1719 38.29L21.6719 27.8501C20.8318 27.21 19.6318 27.3601 18.9819 28.2C18.3418 29.04 18.4919 30.24 19.3318 30.8899L32.6018 41.1499C32.4619 41.6001 32.3818 42.0701 32.3818 42.5601C32.3818 45.1201 34.4619 47.2 37.0217 47.2C39.3318 47.2 41.2419 45.51 41.6018 43.3L54.5017 33.6299C56.0117 32.5 56.3118 30.3501 55.1819 28.8401C54.0518 27.3301 51.9019 27.03 50.3918 28.1599L37.3618 37.9199C37.2556 37.9102 37.1404 37.9099 37.0334 37.9099ZM65.7617 54.1699C75.0417 38.1101 70.0217 19.3799 53.9619 10.1101C37.9019 0.840088 19.1819 5.86011 9.90186 21.9199C0.621826 37.98 5.64185 56.71 21.7019 65.98C37.7617 75.25 56.4919 70.23 65.7617 54.1699Z" fill="black"/>
</svg>
